<svg xmlns="http://www.w3.org/2000/svg" xmlns:xlink="http://www.w3.org/1999/xlink" width="250" zoomAndPan="magnify" viewBox="0 0 187.5 32.249999" height="43" preserveAspectRatio="xMidYMid meet" version="1.2"><defs><clipPath id="298682c906"><path d="M 2 0 L 185 0 L 185 31.515625 L 2 31.515625 Z M 2 0 "/></clipPath></defs><g id="f5fb1ec7d6"><g clip-rule="nonzero" clip-path="url(#298682c906)"><path style=" stroke:none;fill-rule:nonzero;fill:currentColor;fill-opacity:1;" d="M 19.421875 0.832031 L 23.558594 9.246094 C 23.699219 9.574219 24.03125 9.8125 24.40625 9.859375 L 33.714844 11.222656 C 34.609375 11.363281 34.984375 12.492188 34.324219 13.101562 L 27.601562 19.636719 C 27.320312 19.871094 27.226562 20.25 27.273438 20.625 L 28.871094 29.886719 C 29.011719 30.78125 28.074219 31.484375 27.273438 31.0625 L 18.953125 26.6875 C 18.625 26.5 18.246094 26.5 17.917969 26.6875 L 9.597656 31.0625 C 8.796875 31.484375 7.855469 30.78125 8 29.886719 L 9.597656 20.625 C 9.644531 20.25 9.550781 19.917969 9.269531 19.636719 L 2.542969 13.101562 C 1.886719 12.445312 2.261719 11.363281 3.15625 11.222656 L 12.464844 9.859375 C 12.839844 9.8125 13.121094 9.574219 13.3125 9.246094 L 17.449219 0.832031 C 17.871094 0.03125 19.046875 0.03125 19.421875 0.832031 Z M 54.777344 0.832031 L 50.640625 9.246094 C 50.5 9.574219 50.171875 9.8125 49.792969 9.859375 L 40.484375 11.222656 C 39.589844 11.363281 39.214844 12.492188 39.875 13.101562 L 46.597656 19.636719 C 46.878906 19.871094 46.972656 20.25 46.925781 20.625 L 45.328125 29.886719 C 45.1875 30.78125 46.125 31.484375 46.925781 31.0625 L 55.246094 26.6875 C 55.578125 26.5 55.953125 26.5 56.28125 26.6875 L 64.601562 31.0625 C 65.402344 31.484375 66.390625 30.78125 66.203125 29.886719 L 64.601562 20.625 C 64.554688 20.25 64.648438 19.917969 64.933594 19.636719 L 71.65625 13.101562 C 72.3125 12.445312 71.9375 11.363281 71.042969 11.222656 L 61.734375 9.859375 C 61.359375 9.8125 61.078125 9.574219 60.890625 9.246094 L 56.75 0.832031 C 56.375 0.03125 55.199219 0.03125 54.777344 0.832031 Z M 92.152344 0.832031 L 88.015625 9.246094 C 87.875 9.574219 87.546875 9.8125 87.171875 9.859375 L 77.859375 11.222656 C 76.96875 11.363281 76.59375 12.492188 77.25 13.101562 L 83.972656 19.636719 C 84.253906 19.871094 84.347656 20.25 84.300781 20.625 L 82.703125 29.886719 C 82.5625 30.78125 83.503906 31.484375 84.300781 31.0625 L 92.625 26.6875 C 92.953125 26.5 93.328125 26.5 93.65625 26.6875 L 101.980469 31.0625 C 102.777344 31.484375 103.765625 30.78125 103.578125 29.886719 L 101.980469 20.625 C 101.933594 20.25 102.027344 19.917969 102.308594 19.636719 L 109.03125 13.101562 C 109.691406 12.445312 109.3125 11.363281 108.421875 11.222656 L 99.113281 9.859375 C 98.734375 9.8125 98.453125 9.574219 98.265625 9.246094 L 94.128906 0.832031 C 93.707031 0.03125 92.53125 0.03125 92.152344 0.832031 Z M 129.484375 0.832031 L 125.34375 9.246094 C 125.203125 9.574219 124.875 9.8125 124.5 9.859375 L 115.191406 11.222656 C 114.296875 11.363281 113.921875 12.492188 114.578125 13.101562 L 121.300781 19.636719 C 121.585938 19.871094 121.679688 20.25 121.632812 20.625 L 120.03125 29.886719 C 119.890625 30.78125 120.832031 31.484375 121.632812 31.0625 L 129.953125 26.6875 C 130.28125 26.5 130.660156 26.5 130.988281 26.6875 L 139.308594 31.0625 C 140.109375 31.484375 141.09375 30.78125 140.90625 29.886719 L 139.308594 20.625 C 139.261719 20.25 139.355469 19.917969 139.636719 19.636719 L 146.359375 13.101562 C 147.019531 12.445312 146.644531 11.363281 145.75 11.222656 L 136.441406 9.859375 C 136.066406 9.8125 135.78125 9.574219 135.59375 9.246094 L 131.457031 0.832031 C 131.082031 0.03125 129.90625 0.03125 129.484375 0.832031 Z M 166.859375 0.832031 L 162.722656 9.246094 C 162.582031 9.574219 162.25 9.8125 161.875 9.859375 L 152.566406 11.222656 C 151.671875 11.363281 151.296875 12.492188 151.957031 13.101562 L 158.679688 19.636719 C 158.960938 19.871094 159.054688 20.25 159.007812 20.625 L 157.410156 29.886719 C 157.269531 30.78125 158.207031 31.484375 159.007812 31.0625 L 167.328125 26.6875 C 167.660156 26.5 168.035156 26.5 168.363281 26.6875 L 176.683594 31.0625 C 177.484375 31.484375 178.472656 30.78125 178.285156 29.886719 L 176.683594 20.625 C 176.636719 20.25 176.730469 19.917969 177.015625 19.636719 L 183.738281 13.101562 C 184.394531 12.445312 184.019531 11.363281 183.125 11.222656 L 173.816406 9.859375 C 173.441406 9.8125 173.160156 9.574219 172.972656 9.246094 L 168.832031 0.832031 C 168.410156 0.03125 167.234375 0.03125 166.859375 0.832031 Z M 166.859375 0.832031 "/></g></g></svg>