<svg xmlns="http://www.w3.org/2000/svg" xmlns:xlink="http://www.w3.org/1999/xlink" width="50" zoomAndPan="magnify" viewBox="0 0 37.5 37.499999" height="50" preserveAspectRatio="xMidYMid meet" version="1.2"><defs><clipPath id="74a1336fd8"><path d="M 0 0 L 37.007812 0 L 37.007812 37.007812 L 0 37.007812 Z M 0 0 "/></clipPath></defs><g id="9415d92eb0"><g clip-rule="nonzero" clip-path="url(#74a1336fd8)"><path style=" stroke:none;fill-rule:nonzero;fill:currentColor;fill-opacity:1;" d="M 18.503906 0 C 17.898438 0 17.292969 0.03125 16.691406 0.0898438 C 16.085938 0.148438 15.488281 0.238281 14.894531 0.355469 C 14.300781 0.472656 13.710938 0.621094 13.132812 0.796875 C 12.550781 0.972656 11.980469 1.175781 11.421875 1.410156 C 10.863281 1.640625 10.316406 1.898438 9.78125 2.183594 C 9.246094 2.46875 8.726562 2.78125 8.222656 3.117188 C 7.71875 3.453125 7.234375 3.816406 6.765625 4.199219 C 6.296875 4.585938 5.847656 4.992188 5.417969 5.417969 C 4.992188 5.847656 4.585938 6.296875 4.199219 6.765625 C 3.816406 7.234375 3.453125 7.71875 3.117188 8.222656 C 2.78125 8.726562 2.46875 9.246094 2.183594 9.78125 C 1.898438 10.316406 1.640625 10.863281 1.410156 11.421875 C 1.175781 11.980469 0.972656 12.550781 0.796875 13.132812 C 0.621094 13.710938 0.472656 14.300781 0.355469 14.894531 C 0.238281 15.488281 0.148438 16.085938 0.0898438 16.691406 C 0.03125 17.292969 0 17.898438 0 18.503906 C 0 19.109375 0.03125 19.714844 0.0898438 20.316406 C 0.148438 20.921875 0.238281 21.519531 0.355469 22.113281 C 0.472656 22.707031 0.621094 23.292969 0.796875 23.875 C 0.972656 24.453125 1.175781 25.023438 1.410156 25.585938 C 1.640625 26.144531 1.898438 26.691406 2.183594 27.226562 C 2.46875 27.761719 2.78125 28.277344 3.117188 28.78125 C 3.453125 29.285156 3.816406 29.773438 4.199219 30.242188 C 4.585938 30.710938 4.992188 31.160156 5.417969 31.585938 C 5.847656 32.015625 6.296875 32.421875 6.765625 32.804688 C 7.234375 33.191406 7.71875 33.550781 8.222656 33.886719 C 8.726562 34.226562 9.246094 34.535156 9.78125 34.820312 C 10.316406 35.105469 10.863281 35.367188 11.421875 35.597656 C 11.980469 35.828125 12.550781 36.035156 13.132812 36.210938 C 13.710938 36.386719 14.300781 36.53125 14.894531 36.652344 C 15.488281 36.769531 16.085938 36.859375 16.691406 36.917969 C 17.292969 36.976562 17.898438 37.007812 18.503906 37.007812 C 19.109375 37.007812 19.714844 36.976562 20.316406 36.917969 C 20.921875 36.859375 21.519531 36.769531 22.113281 36.652344 C 22.707031 36.53125 23.292969 36.386719 23.875 36.210938 C 24.453125 36.035156 25.023438 35.828125 25.585938 35.597656 C 26.144531 35.367188 26.691406 35.105469 27.226562 34.820312 C 27.761719 34.535156 28.277344 34.226562 28.78125 33.886719 C 29.285156 33.550781 29.773438 33.191406 30.242188 32.804688 C 30.710938 32.421875 31.160156 32.015625 31.585938 31.585938 C 32.015625 31.160156 32.421875 30.710938 32.804688 30.242188 C 33.191406 29.773438 33.550781 29.285156 33.886719 28.78125 C 34.226562 28.277344 34.535156 27.761719 34.820312 27.226562 C 35.105469 26.691406 35.367188 26.144531 35.597656 25.585938 C 35.828125 25.023438 36.035156 24.453125 36.210938 23.875 C 36.386719 23.292969 36.53125 22.707031 36.652344 22.113281 C 36.769531 21.519531 36.859375 20.921875 36.917969 20.316406 C 36.976562 19.714844 37.007812 19.109375 37.007812 18.503906 C 37.007812 17.898438 36.976562 17.292969 36.914062 16.691406 C 36.855469 16.085938 36.765625 15.488281 36.648438 14.894531 C 36.527344 14.300781 36.382812 13.714844 36.207031 13.132812 C 36.027344 12.554688 35.824219 11.984375 35.59375 11.425781 C 35.359375 10.867188 35.101562 10.320312 34.816406 9.785156 C 34.53125 9.25 34.21875 8.730469 33.882812 8.226562 C 33.546875 7.726562 33.183594 7.238281 32.800781 6.769531 C 32.414062 6.300781 32.007812 5.855469 31.582031 5.425781 C 31.152344 4.996094 30.703125 4.589844 30.234375 4.207031 C 29.769531 3.820312 29.28125 3.460938 28.777344 3.125 C 28.273438 2.789062 27.753906 2.476562 27.222656 2.191406 C 26.6875 1.90625 26.140625 1.644531 25.582031 1.414062 C 25.019531 1.183594 24.453125 0.976562 23.871094 0.800781 C 23.292969 0.625 22.707031 0.476562 22.113281 0.359375 C 21.515625 0.242188 20.917969 0.152344 20.316406 0.0898438 C 19.714844 0.03125 19.109375 0 18.503906 0 Z M 18.503906 33.640625 C 17.507812 33.640625 16.523438 33.546875 15.550781 33.351562 C 14.574219 33.15625 13.628906 32.871094 12.710938 32.488281 C 11.792969 32.109375 10.917969 31.644531 10.09375 31.089844 C 9.265625 30.539062 8.5 29.910156 7.796875 29.207031 C 7.09375 28.503906 6.46875 27.742188 5.914062 26.914062 C 5.363281 26.085938 4.898438 25.214844 4.515625 24.296875 C 4.136719 23.378906 3.847656 22.433594 3.65625 21.457031 C 3.460938 20.480469 3.363281 19.496094 3.363281 18.503906 C 3.363281 17.507812 3.460938 16.523438 3.65625 15.550781 C 3.847656 14.574219 4.136719 13.628906 4.515625 12.710938 C 4.898438 11.792969 5.363281 10.917969 5.914062 10.09375 C 6.46875 9.265625 7.09375 8.5 7.796875 7.796875 C 8.5 7.09375 9.265625 6.46875 10.09375 5.914062 C 10.917969 5.363281 11.792969 4.898438 12.710938 4.515625 C 13.628906 4.136719 14.574219 3.847656 15.550781 3.65625 C 16.523438 3.460938 17.507812 3.363281 18.503906 3.363281 C 19.496094 3.363281 20.480469 3.460938 21.457031 3.65625 C 22.433594 3.847656 23.378906 4.136719 24.296875 4.515625 C 25.214844 4.898438 26.085938 5.363281 26.914062 5.914062 C 27.742188 6.46875 28.503906 7.09375 29.207031 7.796875 C 29.910156 8.5 30.539062 9.265625 31.089844 10.09375 C 31.644531 10.917969 32.109375 11.792969 32.488281 12.710938 C 32.871094 13.628906 33.15625 14.574219 33.351562 15.550781 C 33.546875 16.523438 33.640625 17.507812 33.640625 18.503906 C 33.640625 19.496094 33.542969 20.480469 33.347656 21.457031 C 33.152344 22.429688 32.867188 23.375 32.484375 24.292969 C 32.105469 25.210938 31.636719 26.085938 31.085938 26.910156 C 30.535156 27.734375 29.90625 28.5 29.203125 29.203125 C 28.5 29.90625 27.734375 30.535156 26.910156 31.085938 C 26.085938 31.636719 25.210938 32.105469 24.292969 32.484375 C 23.375 32.867188 22.429688 33.152344 21.457031 33.347656 C 20.480469 33.542969 19.496094 33.640625 18.503906 33.640625 Z M 18.503906 33.640625 "/></g><path style=" stroke:none;fill-rule:nonzero;fill:currentColor;fill-opacity:1;" d="M 20.183594 17.808594 L 20.183594 11.773438 C 20.183594 11.550781 20.144531 11.335938 20.058594 11.132812 C 19.972656 10.925781 19.851562 10.742188 19.691406 10.585938 C 19.535156 10.425781 19.351562 10.304688 19.148438 10.222656 C 18.941406 10.136719 18.726562 10.09375 18.503906 10.09375 C 18.28125 10.09375 18.066406 10.136719 17.859375 10.222656 C 17.652344 10.304688 17.472656 10.425781 17.3125 10.585938 C 17.15625 10.742188 17.035156 10.925781 16.949219 11.132812 C 16.863281 11.335938 16.820312 11.550781 16.820312 11.773438 L 16.820312 18.503906 L 16.824219 18.511719 C 16.824219 18.972656 16.988281 19.367188 17.316406 19.691406 L 22.070312 24.449219 C 22.226562 24.613281 22.410156 24.738281 22.617188 24.824219 C 22.824219 24.914062 23.039062 24.960938 23.265625 24.960938 C 23.492188 24.964844 23.707031 24.921875 23.917969 24.835938 C 24.125 24.75 24.308594 24.628906 24.46875 24.46875 C 24.628906 24.308594 24.75 24.125 24.835938 23.917969 C 24.921875 23.707031 24.960938 23.492188 24.960938 23.265625 C 24.960938 23.042969 24.914062 22.824219 24.824219 22.617188 C 24.738281 22.410156 24.613281 22.230469 24.449219 22.070312 Z M 20.183594 17.808594 "/></g></svg>