<svg xmlns="http://www.w3.org/2000/svg" xmlns:xlink="http://www.w3.org/1999/xlink" width="50" zoomAndPan="magnify" viewBox="0 0 37.5 37.499999" height="50" preserveAspectRatio="xMidYMid meet" version="1.2"><defs><clipPath id="d2886b7ee5"><path d="M 0 5 L 32 5 L 32 37.007812 L 0 37.007812 Z M 0 5 "/></clipPath><clipPath id="fb338ded23"><path d="M 19 0 L 37.007812 0 L 37.007812 18 L 19 18 Z M 19 0 "/></clipPath></defs><g id="807bee757f"><g clip-rule="nonzero" clip-path="url(#d2886b7ee5)"><path style=" stroke:none;fill-rule:nonzero;fill:currentColor;fill-opacity:1;" d="M 29.230469 19.707031 L 17.300781 19.707031 L 17.300781 7.777344 C 17.300781 6.785156 16.5 5.984375 15.511719 5.984375 C 6.957031 5.984375 0 12.941406 0 21.496094 C 0 30.046875 6.957031 37.007812 15.511719 37.007812 C 24.0625 37.007812 31.019531 30.046875 31.019531 21.496094 C 31.019531 20.507812 30.21875 19.707031 29.230469 19.707031 Z M 15.511719 33.425781 C 8.933594 33.425781 3.582031 28.074219 3.582031 21.496094 C 3.582031 15.527344 7.988281 10.566406 13.71875 9.699219 L 13.71875 21.496094 C 13.71875 22.484375 14.523438 23.285156 15.511719 23.285156 L 27.304688 23.285156 C 26.441406 29.015625 21.480469 33.425781 15.511719 33.425781 Z M 15.511719 33.425781 "/></g><g clip-rule="nonzero" clip-path="url(#fb338ded23)"><path style=" stroke:none;fill-rule:nonzero;fill:currentColor;fill-opacity:1;" d="M 21.496094 0 C 20.507812 0 19.707031 0.800781 19.707031 1.789062 L 19.707031 15.511719 C 19.707031 16.5 20.507812 17.300781 21.496094 17.300781 L 35.214844 17.300781 C 36.203125 17.300781 37.007812 16.5 37.007812 15.511719 C 37.007812 6.957031 30.046875 0 21.496094 0 Z M 23.285156 13.71875 L 23.285156 3.714844 C 28.433594 4.492188 32.511719 8.574219 33.292969 13.71875 Z M 23.285156 13.71875 "/></g></g></svg>