<svg xmlns="http://www.w3.org/2000/svg" xmlns:xlink="http://www.w3.org/1999/xlink" width="50" zoomAndPan="magnify" viewBox="0 0 37.5 37.499999" height="50" preserveAspectRatio="xMidYMid meet" version="1.2"><defs><clipPath id="68a9a48bfe"><path d="M 24 3.515625 L 37 3.515625 L 37 26 L 24 26 Z M 24 3.515625 "/></clipPath><clipPath id="ebae57cd63"><path d="M 0 3.515625 L 13 3.515625 L 13 26 L 0 26 Z M 0 3.515625 "/></clipPath><clipPath id="e6a68554ac"><path d="M 5 3.515625 L 32 3.515625 L 32 33.121094 L 5 33.121094 Z M 5 3.515625 "/></clipPath></defs><g id="24088f5780"><g clip-rule="nonzero" clip-path="url(#68a9a48bfe)"><path style=" stroke:none;fill-rule:nonzero;fill:currentColor;fill-opacity:1;" d="M 27.96875 12.417969 C 27.96875 15.433594 26.78125 18.226562 24.820312 20.167969 L 25.28125 20.367188 C 27.773438 21.441406 29.789062 23.242188 31.121094 25.484375 L 36.777344 25.484375 L 36.476562 23.441406 C 36.074219 20.683594 34.265625 18.332031 31.707031 17.226562 L 28.960938 16.042969 C 31.230469 15.179688 32.863281 12.785156 32.863281 9.960938 C 32.863281 6.410156 30.28125 3.53125 27.097656 3.53125 C 26.125 3.53125 25.214844 3.8125 24.414062 4.292969 C 26.582031 6.214844 27.96875 9.140625 27.96875 12.417969 "/></g><g clip-rule="nonzero" clip-path="url(#ebae57cd63)"><path style=" stroke:none;fill-rule:nonzero;fill:currentColor;fill-opacity:1;" d="M 11.496094 20.367188 L 11.957031 20.171875 C 9.992188 18.226562 8.808594 15.433594 8.808594 12.417969 C 8.808594 9.140625 10.195312 6.214844 12.363281 4.292969 C 11.5625 3.8125 10.652344 3.53125 9.679688 3.53125 C 6.496094 3.53125 3.914062 6.410156 3.914062 9.960938 C 3.914062 12.785156 5.546875 15.179688 7.816406 16.042969 L 5.070312 17.226562 C 2.511719 18.332031 0.703125 20.683594 0.296875 23.441406 L 0 25.484375 L 5.65625 25.484375 C 6.988281 23.242188 9.003906 21.441406 11.496094 20.367188 "/></g><g clip-rule="nonzero" clip-path="url(#e6a68554ac)"><path style=" stroke:none;fill-rule:nonzero;fill:currentColor;fill-opacity:1;" d="M 5.878906 30.394531 L 5.480469 33.113281 L 31.296875 33.113281 L 30.898438 30.394531 C 30.355469 26.714844 27.949219 23.578125 24.53125 22.105469 L 20.875 20.527344 C 23.898438 19.375 26.078125 16.183594 26.078125 12.417969 C 26.078125 7.683594 22.636719 3.84375 18.390625 3.84375 C 14.140625 3.84375 10.699219 7.683594 10.699219 12.417969 C 10.699219 16.183594 12.878906 19.375 15.902344 20.527344 L 12.246094 22.105469 C 8.828125 23.578125 6.421875 26.714844 5.878906 30.394531 "/></g></g></svg>