<svg xmlns="http://www.w3.org/2000/svg" xmlns:xlink="http://www.w3.org/1999/xlink" width="50" zoomAndPan="magnify" viewBox="0 0 37.5 37.499999" height="50" preserveAspectRatio="xMidYMid meet" version="1.2"><defs><clipPath id="8eeb804549"><path d="M 0 0 L 37 0 L 37 37.007812 L 0 37.007812 Z M 0 0 "/></clipPath></defs><g id="4258993c58"><g clip-rule="nonzero" clip-path="url(#8eeb804549)"><path style=" stroke:none;fill-rule:nonzero;fill:currentColor;fill-opacity:1;" d="M 35.945312 1.066406 C 35.253906 0.375 34.335938 0 33.363281 0.0117188 L 19.027344 0.167969 C 18.808594 0.171875 18.601562 0.257812 18.449219 0.414062 L 1.054688 17.808594 C 0.375 18.484375 0 19.390625 0 20.347656 C 0 21.308594 0.375 22.210938 1.054688 22.890625 L 14.117188 35.953125 C 14.816406 36.65625 15.738281 37.007812 16.660156 37.007812 C 17.578125 37.007812 18.5 36.65625 19.199219 35.953125 L 36.59375 18.5625 C 36.75 18.40625 36.835938 18.199219 36.839844 17.980469 L 36.996094 3.644531 C 37.007812 2.671875 36.632812 1.753906 35.945312 1.066406 Z M 35.171875 17.621094 L 18.019531 34.773438 C 17.269531 35.523438 16.046875 35.523438 15.296875 34.773438 L 2.234375 21.710938 C 1.871094 21.347656 1.671875 20.863281 1.671875 20.347656 C 1.671875 19.835938 1.871094 19.351562 2.234375 18.988281 L 19.386719 1.835938 L 33.378906 1.683594 C 33.386719 1.683594 33.394531 1.683594 33.402344 1.683594 C 33.917969 1.683594 34.398438 1.882812 34.761719 2.246094 C 35.132812 2.613281 35.332031 3.105469 35.324219 3.628906 Z M 35.171875 17.621094 "/></g><path style=" stroke:none;fill-rule:nonzero;fill:currentColor;fill-opacity:1;" d="M 30.40625 3.914062 C 29.71875 3.914062 29.074219 4.179688 28.589844 4.664062 C 28.105469 5.152344 27.835938 5.796875 27.835938 6.484375 C 27.835938 7.167969 28.105469 7.816406 28.589844 8.300781 C 29.074219 8.785156 29.71875 9.054688 30.40625 9.054688 C 31.09375 9.054688 31.738281 8.785156 32.222656 8.300781 C 32.710938 7.816406 32.976562 7.167969 32.976562 6.484375 C 32.976562 5.796875 32.710938 5.152344 32.222656 4.664062 C 31.738281 4.179688 31.09375 3.914062 30.40625 3.914062 Z M 31.042969 7.117188 C 30.871094 7.289062 30.648438 7.382812 30.40625 7.382812 C 30.164062 7.382812 29.941406 7.289062 29.769531 7.117188 C 29.601562 6.949219 29.507812 6.722656 29.507812 6.484375 C 29.507812 6.242188 29.601562 6.015625 29.769531 5.847656 C 29.941406 5.675781 30.164062 5.582031 30.40625 5.582031 C 30.648438 5.582031 30.871094 5.675781 31.042969 5.847656 C 31.214844 6.015625 31.308594 6.242188 31.308594 6.484375 C 31.308594 6.722656 31.214844 6.949219 31.042969 7.117188 Z M 31.042969 7.117188 "/><path style=" stroke:none;fill-rule:nonzero;fill:currentColor;fill-opacity:1;" d="M 24.570312 11.136719 L 23.597656 12.109375 C 22.902344 11.558594 22.046875 11.257812 21.144531 11.257812 C 20.089844 11.257812 19.101562 11.667969 18.355469 12.414062 L 18.28125 12.488281 C 17.191406 13.578125 16.835938 15.210938 17.378906 16.652344 L 18.667969 20.101562 C 18.980469 20.929688 18.777344 21.871094 18.148438 22.5 C 17.691406 22.953125 17.085938 23.207031 16.441406 23.207031 C 15.796875 23.207031 15.1875 22.953125 14.730469 22.5 L 14.664062 22.429688 C 14.636719 22.390625 14.605469 22.351562 14.570312 22.320312 C 14.535156 22.285156 14.5 22.253906 14.460938 22.226562 L 14.390625 22.15625 C 13.933594 21.699219 13.683594 21.09375 13.683594 20.449219 C 13.683594 19.804688 13.933594 19.195312 14.390625 18.738281 L 14.476562 18.65625 C 14.800781 18.328125 14.800781 17.800781 14.476562 17.472656 C 14.148438 17.148438 13.621094 17.148438 13.292969 17.472656 L 13.210938 17.558594 C 12.4375 18.332031 12.011719 19.355469 12.011719 20.449219 C 12.011719 21.339844 12.296875 22.1875 12.820312 22.886719 L 11.75 23.960938 C 11.421875 24.285156 11.421875 24.816406 11.75 25.140625 C 11.910156 25.304688 12.125 25.386719 12.339844 25.386719 C 12.550781 25.386719 12.765625 25.304688 12.929688 25.140625 L 14 24.070312 C 14.703125 24.59375 15.550781 24.875 16.441406 24.875 C 17.53125 24.875 18.558594 24.449219 19.328125 23.679688 C 20.417969 22.589844 20.773438 20.957031 20.234375 19.515625 L 18.941406 16.066406 C 18.628906 15.238281 18.835938 14.296875 19.460938 13.667969 L 19.535156 13.59375 C 19.964844 13.164062 20.535156 12.929688 21.144531 12.929688 C 21.753906 12.929688 22.324219 13.164062 22.753906 13.59375 L 23.292969 14.132812 C 23.722656 14.5625 23.960938 15.136719 23.960938 15.742188 C 23.960938 16.351562 23.722656 16.921875 23.292969 17.355469 C 22.96875 17.679688 22.96875 18.207031 23.292969 18.535156 C 23.621094 18.859375 24.148438 18.859375 24.472656 18.535156 C 25.90625 17.105469 26.003906 14.839844 24.777344 13.292969 L 25.75 12.320312 C 26.078125 11.992188 26.078125 11.464844 25.75 11.136719 C 25.425781 10.8125 24.894531 10.8125 24.570312 11.136719 Z M 24.570312 11.136719 "/></g></svg>